<svg width="386" height="280" viewBox="0 0 386 280" fill="none" xmlns="http://www.w3.org/2000/svg">
<rect x="1.16699" y="0.5" width="384.333" height="279" rx="23.5" fill="#F4F4F4"/>
<rect x="1.16699" y="0.5" width="384.333" height="279" rx="23.5" stroke="#7C4DFF" stroke-dasharray="10 10"/>
<path d="M95.1197 139.68C84.6727 139.68 65.7452 152.975 55.834 160.139V218H330.834V121.139C317.101 121.139 301.727 134.406 291.548 134.406C278.824 134.406 266.326 115.225 252.263 115.225C237.18 115.225 225.758 141.279 212.977 141.279C199.449 141.279 186.281 62 173.691 62C157.619 62 150.076 179.48 134.405 179.48C124.36 179.48 103.156 139.68 95.1197 139.68Z" fill="url(#paint0_linear_5608_69171)"/>
<path d="M55.834 192.318C65.7452 182.805 84.6727 165.151 95.1197 165.151C103.156 165.151 124.36 218 134.405 218C150.076 218 157.619 62.0001 173.691 62C186.281 61.9999 199.449 167.273 212.977 167.273C225.758 167.273 237.18 132.678 252.263 132.678C266.326 132.678 278.824 158.147 291.548 158.147C301.727 158.147 317.101 140.531 330.834 140.531" stroke="#7C4DFF" stroke-width="3" stroke-linecap="round"/>
<defs>
<linearGradient id="paint0_linear_5608_69171" x1="193.334" y1="62" x2="193.334" y2="218" gradientUnits="userSpaceOnUse">
<stop stop-color="#7C4DFF"/>
<stop offset="1" stop-color="#7C4DFF" stop-opacity="0"/>
</linearGradient>
</defs>
</svg>
