<svg width="200" height="200" viewBox="0 0 200 200" fill="none" xmlns="http://www.w3.org/2000/svg">
<path d="M167.229 64.583C166.843 61.6104 166.484 58.9534 166.201 56.7326C165.23 49.1292 161.485 39.4004 154.079 35.6049C141.189 28.9983 33.9541 36.5953 24.1247 40.3698C9.15483 46.1187 13.492 65.697 13.8679 75.8274C14.4065 90.3495 15.1583 104.915 16.1508 119.415C16.6415 126.586 16.5351 133.89 22.3814 138.946C27.669 143.519 35.1392 142.826 41.4862 142.607C61.7906 141.91 145.102 139.894 159.452 134.007C162.038 132.946 164.052 130.885 165.602 128.083M56.7516 167.002C62.3068 166.508 68.0682 166.098 73.9271 165.74M114.564 163.739C122.993 163.331 131.093 162.885 138.519 162.303M62.5359 72.1166C57.4962 76.8015 51.1271 80.7524 45.6352 84.956C42.8576 87.0817 40.1038 89.2717 37.3492 91.4729L65.0046 106.862M92.47 69.9898C98.1215 73.9151 104.985 76.9258 111.016 80.3106C114.066 82.0223 117.102 83.8009 120.14 85.5906L94.9387 104.736M82.2813 65.6593L74.4511 110.327M74.5208 141.504C86.3311 141.059 99.562 140.479 112.073 139.723C113.77 146.798 114.143 154.521 114.439 160.665C114.491 161.749 114.541 162.784 114.596 163.758C109.11 164.103 102.147 164.439 94.7994 164.794C87.8837 165.128 80.6271 165.479 73.9406 165.868V163.723C73.9343 162.799 73.9162 161.761 73.8965 160.633C73.806 155.443 73.6821 148.337 74.5208 141.504ZM172.333 98.5605C171.948 102.975 167.567 106.428 163.232 106.016C158.897 105.604 156.323 102.138 156.047 98.5605C155.771 94.9832 159.188 90.9929 163.232 90.4776C167.276 89.9622 172.718 94.1462 172.333 98.5605ZM166.534 75.0564C165.437 72.3379 161.503 72.4151 160.232 75.0564L158.015 78.8269C157.283 80.3459 155.543 81.0924 153.939 80.5755L150.478 79.4606C147.892 78.6277 145.432 81.0351 146.209 83.6382L146.864 85.8322C147.424 87.7075 146.276 89.6642 144.366 90.0911L143.391 90.3088C140.792 90.8898 139.858 94.1122 141.745 95.9928L145.259 99.4956C146.283 100.517 146.543 102.077 145.905 103.375L143.682 107.896C142.459 110.383 144.589 113.201 147.315 112.706L148.865 112.424C150.937 112.047 152.844 113.638 152.844 115.744V117.557C152.844 120.3 155.942 121.897 158.176 120.307L161.876 117.673C163.226 116.712 165.074 116.873 166.237 118.053L168.619 120.47C170.597 122.477 174.018 121.319 174.371 118.523L174.917 114.198C175.153 112.334 176.864 111.022 178.725 111.277L181.251 111.624C184.14 112.021 186.138 108.815 184.51 106.396L182.831 103.902C181.817 102.396 182.177 100.358 183.645 99.289L186.205 97.4255C188.542 95.7246 187.799 92.0652 184.984 91.4098L182.768 90.8936C180.816 90.4391 179.688 88.3939 180.344 86.5006L181.577 82.9455C182.504 80.2734 179.93 77.7149 177.264 78.6575L172.333 80.4006C170.63 81.0028 168.754 80.1568 168.078 78.4813L166.534 75.0564Z" stroke="#0E243C" stroke-width="2" stroke-miterlimit="1.5" stroke-linecap="round" stroke-linejoin="round"/>
</svg>
